<?xml version="1.0" encoding="utf-8"?>
<svg version="1.1" xmlns:xlink="http://www.w3.org/1999/xlink" width="25px" height="24px" xmlns="http://www.w3.org/2000/svg">
  <g transform="matrix(1 0 0 1 -68 -89 )">
    <path d="M 23.8484375 5.9736  L 12.5 0.206400000000001  L 1.1515625 5.9736  L 12.5 10.92  L 23.8484375 5.9736  Z M 24.3546875 11.892  L 24.3546875 7.5072  L 13.44921875 12.6264  L 13.44921875 17.2056  L 24.3546875 11.892  Z M 24.3546875 17.9616  L 24.3546875 13.9008  L 13.44921875 19.0416  L 13.44921875 23.3616  L 24.3546875 17.9616  Z M 11.55078125 12.6264  L 11.5296875 12.6264  L 0.6453125 7.5072  L 0.6453125 11.9136  L 11.55078125 17.1408  L 11.55078125 12.6264  Z M 9.5890625 13.7064  C 9.5890625 14.3328  9.0828125 14.7864  8.45 14.6136  C 7.83828125 14.5272  7.3109375 13.9008  7.3109375 13.2744  C 7.3109375 12.648  7.83828125 12.1944  8.45 12.3672  C 9.06171875 12.54  9.5890625 13.08  9.5890625 13.7064  Z M 11.55078125 19.0416  L 0.645312500000002 13.9008  L 0.645312500000002 17.9616  L 11.55078125 23.3616  L 11.55078125 19.0416  Z M 9.5890625 19.992  C 9.5890625 20.64  9.0828125 21.0936  8.45 20.8992  C 7.83828125 20.8128  7.3109375 20.1864  7.3109375 19.56  C 7.3109375 18.9336  7.83828125 18.48  8.45 18.6528  C 9.06171875 18.8256  9.5890625 19.3656  9.5890625 19.992  Z " fill-rule="nonzero" fill="#6eb8fd" stroke="none" transform="matrix(1 0 0 1 68 89 )" />
  </g>
</svg>